<?xml version="1.0" encoding="utf-8"?>
<!-- Generator: Adobe Illustrator 24.0.2, SVG Export Plug-In . SVG Version: 6.00 Build 0)  -->
<svg version="1.1" id="Capa_1" xmlns="http://www.w3.org/2000/svg" xmlns:xlink="http://www.w3.org/1999/xlink" x="0px" y="0px"
	 viewBox="0 0 217 237" style="enable-background:new 0 0 217 237;" xml:space="preserve">
<style type="text/css">
	.st0{fill-rule:evenodd;clip-rule:evenodd;fill:#3E92CC;}
	.st1{filter:url(#Adobe_OpacityMaskFilter);}
	.st2{fill-rule:evenodd;clip-rule:evenodd;fill:#FFFFFF;}
	.st3{mask:url(#mask-2_1_);}
	.st4{fill-rule:evenodd;clip-rule:evenodd;fill:#D0C6AC;}
	.st5{filter:url(#Adobe_OpacityMaskFilter_1_);}
	.st6{mask:url(#mask-6_1_);}
	.st7{fill-rule:evenodd;clip-rule:evenodd;fill:#FFDBB4;}
	.st8{filter:url(#Adobe_OpacityMaskFilter_2_);}
	.st9{mask:url(#mask-6_2_);fill-rule:evenodd;clip-rule:evenodd;fill-opacity:0.1;}
	.st10{fill-rule:evenodd;clip-rule:evenodd;fill:#1F3140;}
	.st11{filter:url(#Adobe_OpacityMaskFilter_3_);}
	.st12{mask:url(#mask-14_1_);}
	.st13{fill-rule:evenodd;clip-rule:evenodd;fill:#4A312C;}
	.st14{fill-rule:evenodd;clip-rule:evenodd;fill:#B7C1DB;}
	.st15{filter:url(#Adobe_OpacityMaskFilter_4_);}
	.st16{mask:url(#mask-8_1_);}
	.st17{fill-rule:evenodd;clip-rule:evenodd;fill:#293347;}
	.st18{filter:url(#Adobe_OpacityMaskFilter_5_);}
	.st19{mask:url(#mask-8_2_);fill-rule:evenodd;clip-rule:evenodd;fill:#F4F4F4;}
	.st20{filter:url(#Adobe_OpacityMaskFilter_6_);}
	.st21{mask:url(#mask-8_3_);fill-rule:evenodd;clip-rule:evenodd;fill-opacity:0.16;}
	.st22{fill-rule:evenodd;clip-rule:evenodd;fill-opacity:0.7;}
	.st23{filter:url(#Adobe_OpacityMaskFilter_7_);}
	.st24{mask:url(#mask-10_1_);fill-rule:evenodd;clip-rule:evenodd;fill:#FFFFFF;}
	.st25{filter:url(#Adobe_OpacityMaskFilter_8_);}
	.st26{mask:url(#mask-10_2_);}
	.st27{fill-rule:evenodd;clip-rule:evenodd;fill:#FF4F6D;}
	.st28{fill-rule:evenodd;clip-rule:evenodd;fill-opacity:0.16;}
	.st29{fill-rule:evenodd;clip-rule:evenodd;fill-opacity:0.6;}
	.st30{fill:#4A312C;}
</style>
<g id="Circle-Background">
	<circle id="path-1_1_" class="st0" cx="108.8" cy="129" r="108"/>
</g>
<defs>
	<filter id="Adobe_OpacityMaskFilter" filterUnits="userSpaceOnUse" x="0.8" y="21" width="216.4" height="216">
		<feColorMatrix  type="matrix" values="1 0 0 0 0  0 1 0 0 0  0 0 1 0 0  0 0 0 1 0"/>
	</filter>
</defs>
<mask maskUnits="userSpaceOnUse" x="0.8" y="21" width="216.4" height="216" id="mask-2_1_">
	<g class="st1">
		<circle id="path-1_2_" class="st2" cx="108.8" cy="129" r="108"/>
	</g>
</mask>
<g id="_xD83D__xDD8D_-Circle-Color" class="st3">
	<rect id="_xD83D__xDD8D_Color" x="0.8" y="21" class="st0" width="216.4" height="216"/>
</g>
<g id="Body" transform="translate(28.800000, 32.400000)">
	<g>
		<path id="path-5_1_" class="st4" d="M80-15c27.8,0,50.4,22.6,50.4,50.4l0,5.5c5.1,0.9,9,5.3,9,10.7v12.6c0,5.4-4,10-9.3,10.7
			c-1.9,17.8-13,32.9-28.5,40.3l0,16.6h3.6c35.8,0,64.8,29,64.8,64.8v8.1H-10v-8.1c0-35.8,29-64.8,64.8-64.8h3.6l0-16.6
			c-15.5-7.4-26.7-22.4-28.5-40.3c-5.2-0.7-9.3-5.2-9.3-10.7V51.6c0-5.4,3.9-9.8,9-10.7l0-5.5C29.6,7.6,52.2-15,80-15z"/>
	</g>
	<defs>
		<filter id="Adobe_OpacityMaskFilter_1_" filterUnits="userSpaceOnUse" x="-38.8" y="-15" width="238.4" height="220.4">
			<feColorMatrix  type="matrix" values="1 0 0 0 0  0 1 0 0 0  0 0 1 0 0  0 0 0 1 0"/>
		</filter>
	</defs>
	<mask maskUnits="userSpaceOnUse" x="-38.8" y="-15" width="238.4" height="220.4" id="mask-6_1_">
		<g class="st5">
			<path id="path-5_2_" class="st2" d="M80-15c27.8,0,50.4,22.6,50.4,50.4l0,5.5c5.1,0.9,9,5.3,9,10.7v12.6c0,5.4-4,10-9.3,10.7
				c-1.9,17.8-13,32.9-28.5,40.3l0,16.6h3.6c35.8,0,64.8,29,64.8,64.8v8.1H-10v-8.1c0-35.8,29-64.8,64.8-64.8h3.6l0-16.6
				c-15.5-7.4-26.7-22.4-28.5-40.3c-5.2-0.7-9.3-5.2-9.3-10.7V51.6c0-5.4,3.9-9.8,9-10.7l0-5.5C29.6,7.6,52.2-15,80-15z"/>
		</g>
	</mask>
	<g id="Skin_x2F__xD83D__xDC76__xD83C__xDFFB_-05-Pale" class="st6">
		<g id="Color" transform="translate(-28.800000, 0.000000)">
			<rect x="-10" y="-15" class="st7" width="238.4" height="220.4"/>
		</g>
	</g>
	<defs>
		<filter id="Adobe_OpacityMaskFilter_2_" filterUnits="userSpaceOnUse" x="29.6" y="69.6" width="100.8" height="57.6">
			<feColorMatrix  type="matrix" values="1 0 0 0 0  0 1 0 0 0  0 0 1 0 0  0 0 0 1 0"/>
		</filter>
	</defs>
	<mask maskUnits="userSpaceOnUse" x="29.6" y="69.6" width="100.8" height="57.6" id="mask-6_2_">
		<g class="st8">
			<path id="path-5_3_" class="st2" d="M80-15c27.8,0,50.4,22.6,50.4,50.4l0,5.5c5.1,0.9,9,5.3,9,10.7v12.6c0,5.4-4,10-9.3,10.7
				c-1.9,17.8-13,32.9-28.5,40.3l0,16.6h3.6c35.8,0,64.8,29,64.8,64.8v8.1H-10v-8.1c0-35.8,29-64.8,64.8-64.8h3.6l0-16.6
				c-15.5-7.4-26.7-22.4-28.5-40.3c-5.2-0.7-9.3-5.2-9.3-10.7V51.6c0-5.4,3.9-9.8,9-10.7l0-5.5C29.6,7.6,52.2-15,80-15z"/>
		</g>
	</mask>
	<path id="Neck-Shadow" class="st9" d="M29.6,69.6C29.6,97.4,52.2,120,80,120s50.4-22.6,50.4-50.4l0,0v7.2
		c0,27.8-22.6,50.4-50.4,50.4s-50.4-22.6-50.4-50.4V69.6z"/>
</g>
<g transform="translate(43.000000, 15.000000)">
	<g id="Short-Hair">
		<path id="path-13_1_" class="st10" d="M108.1,5.9c-2.5-2.5-5.4-4.7-8.2-6.9c-0.6-0.5-1.2-0.9-1.9-1.4c-0.1-0.1-1.5-1.1-1.7-1.5
			c-0.4-0.9-0.2-0.2-0.1-1.3c0.1-1.3,2.8-5.2,0.8-6c-0.9-0.4-2.5,0.6-3.4,1c-1.7,0.7-3.4,1.2-5.2,1.7c0.8-1.7,2.4-5-0.6-4.1
			c-2.3,0.7-4.5,2.5-6.9,3.3c0.8-1.3,3.9-5.2,1.1-5.5c-0.9-0.1-3.4,1.6-4.4,1.9c-2.8,1-5.7,1.7-8.7,2.3C59-8.7,47.2-9.2,37.9-4.6
			c-7.2,3.5-14.3,9-18.4,16c-4,6.7-5.5,14.1-6.3,21.8c-0.6,5.7-0.7,11.5-0.4,17.2c0.1,1.9,0.3,10.4,3,7.8c1.3-1.3,1.3-6.5,1.7-8.3
			c0.7-3.5,1.3-7.1,2.5-10.5c2-6,4.3-8.8,9.3-13c3.2-2.7,5.4-6.2,8.4-8.9c1.4-1.2,0.3-1.1,2.5-0.9c1.5,0.1,3,0.1,4.4,0.2
			C48,17,51.4,17,54.8,17c6.9,0,13.7,0.1,20.6-0.2c3.1-0.2,6.1-0.2,9.2-0.5c1.7-0.2,4.7-1.2,6.1-0.4c1.3,0.8,2.6,3.3,3.5,4.3
			c2.2,2.4,4.8,4.3,7.3,6.2c5.3,4.1,8,5.7,9.6,12.1c1.6,6.4,1.2,12.4,3.1,18.7c0.3,1.1,1.3,3,2.4,1.3c0.2-0.3,0.2-2.1,0.2-3.1
			c0-4.1,1-7.1,1-11.2C117.8,31.7,117.4,15.4,108.1,5.9z"/>
	</g>
	<defs>
		<filter id="Adobe_OpacityMaskFilter_3_" filterUnits="userSpaceOnUse" x="-53.1" y="-30" width="239.1" height="252.4">
			<feColorMatrix  type="matrix" values="1 0 0 0 0  0 1 0 0 0  0 0 1 0 0  0 0 0 1 0"/>
		</filter>
	</defs>
	<mask maskUnits="userSpaceOnUse" x="-53.1" y="-30" width="239.1" height="252.4" id="mask-14_1_">
		<g class="st11">
			<path id="path-13_2_" class="st2" d="M108.1,5.9c-2.5-2.5-5.4-4.7-8.2-6.9c-0.6-0.5-1.2-0.9-1.9-1.4c-0.1-0.1-1.5-1.1-1.7-1.5
				c-0.4-0.9-0.2-0.2-0.1-1.3c0.1-1.3,2.8-5.2,0.8-6c-0.9-0.4-2.5,0.6-3.4,1c-1.7,0.7-3.4,1.2-5.2,1.7c0.8-1.7,2.4-5-0.6-4.1
				c-2.3,0.7-4.5,2.5-6.9,3.3c0.8-1.3,3.9-5.2,1.1-5.5c-0.9-0.1-3.4,1.6-4.4,1.9c-2.8,1-5.7,1.7-8.7,2.3C59-8.7,47.2-9.2,37.9-4.6
				c-7.2,3.5-14.3,9-18.4,16c-4,6.7-5.5,14.1-6.3,21.8c-0.6,5.7-0.7,11.5-0.4,17.2c0.1,1.9,0.3,10.4,3,7.8c1.3-1.3,1.3-6.5,1.7-8.3
				c0.7-3.5,1.3-7.1,2.5-10.5c2-6,4.3-8.8,9.3-13c3.2-2.7,5.4-6.2,8.4-8.9c1.4-1.2,0.3-1.1,2.5-0.9c1.5,0.1,3,0.1,4.4,0.2
				C48,17,51.4,17,54.8,17c6.9,0,13.7,0.1,20.6-0.2c3.1-0.2,6.1-0.2,9.2-0.5c1.7-0.2,4.7-1.2,6.1-0.4c1.3,0.8,2.6,3.3,3.5,4.3
				c2.2,2.4,4.8,4.3,7.3,6.2c5.3,4.1,8,5.7,9.6,12.1c1.6,6.4,1.2,12.4,3.1,18.7c0.3,1.1,1.3,3,2.4,1.3c0.2-0.3,0.2-2.1,0.2-3.1
				c0-4.1,1-7.1,1-11.2C117.8,31.7,117.4,15.4,108.1,5.9z"/>
		</g>
	</mask>
	<g id="Color_x2F_Hair_x2F_Brown-Dark" class="st12">
		<g id="Color_1_" transform="translate(-43.100000, -15.000000)">
			<rect x="-10" y="-15" class="st13" width="239.1" height="252.4"/>
		</g>
	</g>
</g>
<title>mf-avatar</title>
<desc>Created with Sketch.</desc>
<g id="Mask">
</g>
<g id="Clothing_x2F_Hoodie" transform="translate(0.000000, 153.000000)">
	<g id="Hoodie">
		<path id="path-7_1_" class="st14" d="M130.4-3.2c16.3,1.8,28.8,6.8,28.8,19.8l0-0.4c23.3,9.8,39.6,32.9,39.6,59.7V84h-180v-8.1
			C18.8,49,35.1,26,58.4,16.2C58.7,3.5,71.1-1.4,87.2-3.2l0,17c0,11.9,9.7,21.6,21.6,21.6s21.6-9.7,21.6-21.6l0,0L130.4-3.2z"/>
	</g>
	<defs>
		<filter id="Adobe_OpacityMaskFilter_4_" filterUnits="userSpaceOnUse" x="-10" y="-15" width="238.5" height="99">
			<feColorMatrix  type="matrix" values="1 0 0 0 0  0 1 0 0 0  0 0 1 0 0  0 0 0 1 0"/>
		</filter>
	</defs>
	<mask maskUnits="userSpaceOnUse" x="-10" y="-15" width="238.5" height="99" id="mask-8_1_">
		<g class="st15">
			<path id="path-7_2_" class="st2" d="M130.4-3.2c16.3,1.8,28.8,6.8,28.8,19.8l0-0.4c23.3,9.8,39.6,32.9,39.6,59.7V84h-180v-8.1
				C18.8,49,35.1,26,58.4,16.2C58.7,3.5,71.1-1.4,87.2-3.2l0,17c0,11.9,9.7,21.6,21.6,21.6s21.6-9.7,21.6-21.6l0,0L130.4-3.2z"/>
		</g>
	</mask>
	<g id="Color_x2F_Palette_x2F_Slate" class="st16">
		<rect id="_xD83D__xDD8D_Color_1_" x="-10" y="-15" class="st17" width="238.5" height="99"/>
	</g>
	<defs>
		<filter id="Adobe_OpacityMaskFilter_5_" filterUnits="userSpaceOnUse" x="75.5" y="37.3" width="66.6" height="52.1">
			<feColorMatrix  type="matrix" values="1 0 0 0 0  0 1 0 0 0  0 0 1 0 0  0 0 0 1 0"/>
		</filter>
	</defs>
	<mask maskUnits="userSpaceOnUse" x="75.5" y="37.3" width="66.6" height="52.1" id="mask-8_2_">
		<g class="st18">
			<path id="path-7_3_" class="st2" d="M130.4-3.2c16.3,1.8,28.8,6.8,28.8,19.8l0-0.4c23.3,9.8,39.6,32.9,39.6,59.7V84h-180v-8.1
				C18.8,49,35.1,26,58.4,16.2C58.7,3.5,71.1-1.4,87.2-3.2l0,17c0,11.9,9.7,21.6,21.6,21.6s21.6-9.7,21.6-21.6l0,0L130.4-3.2z"/>
		</g>
	</mask>
	<path id="Straps" class="st19" d="M81.8,40.6l0,43.4h-6.3l0-46.7C77.5,38.5,79.6,39.6,81.8,40.6z M142.1,37.3l0,47.9
		c0,2.3-1.4,4.2-3.2,4.2s-3.1-1.9-3.1-4.2l0-43.7C138,40.3,140.1,38.9,142.1,37.3z"/>
	<defs>
		<filter id="Adobe_OpacityMaskFilter_6_" filterUnits="userSpaceOnUse" x="49" y="-3.5" width="119.7" height="49.7">
			<feColorMatrix  type="matrix" values="1 0 0 0 0  0 1 0 0 0  0 0 1 0 0  0 0 0 1 0"/>
		</filter>
	</defs>
	<mask maskUnits="userSpaceOnUse" x="49" y="-3.5" width="119.7" height="49.7" id="mask-8_3_">
		<g class="st20">
			<path id="path-7_4_" class="st2" d="M130.4-3.2c16.3,1.8,28.8,6.8,28.8,19.8l0-0.4c23.3,9.8,39.6,32.9,39.6,59.7V84h-180v-8.1
				C18.8,49,35.1,26,58.4,16.2C58.7,3.5,71.1-1.4,87.2-3.2l0,17c0,11.9,9.7,21.6,21.6,21.6s21.6-9.7,21.6-21.6l0,0L130.4-3.2z"/>
		</g>
	</mask>
	<path id="Shadow" class="st21" d="M145.7-3.5c13.5,2.6,22.9,7.7,22.9,17.6c0,17.7-29.7,32.1-59.8,32.1S49,31.8,49,14.1
		C49,4.1,58.3-1,71.9-3.5c-8.2,3-13.5,8.1-13.5,16.5c0,18.4,25,33.2,50.4,33.2s50.4-14.9,50.4-33.2c0-8.3-5.1-13.3-13-16.3
		L145.7-3.5z"/>
</g>
<g id="Face" transform="translate(68.400000, 73.800000)">
	<g id="Mouth_x2F_Smile" transform="translate(1.800000, 46.800000)">
		<g id="Mouth">
			<path id="path-9_1_" class="st22" d="M21.1-3.7c1,8.5,8.4,15.2,17.4,15.2c9,0,16.4-6.7,17.4-15.3c0.1-0.7-0.7-1.8-1.7-1.8
				c-13.7,0-24.2,0-31.2,0C21.9-5.6,21-4.5,21.1-3.7z"/>
		</g>
		<defs>
			<filter id="Adobe_OpacityMaskFilter_7_" filterUnits="userSpaceOnUse" x="24.7" y="-15.5" width="28.5" height="14.4">
				<feColorMatrix  type="matrix" values="1 0 0 0 0  0 1 0 0 0  0 0 1 0 0  0 0 0 1 0"/>
			</filter>
		</defs>
		<mask maskUnits="userSpaceOnUse" x="24.7" y="-15.5" width="28.5" height="14.4" id="mask-10_1_">
			<g class="st23">
				<path id="path-9_2_" class="st2" d="M21.1-3.7c1,8.5,8.4,15.2,17.4,15.2c9,0,16.4-6.7,17.4-15.3c0.1-0.7-0.7-1.8-1.7-1.8
					c-13.7,0-24.2,0-31.2,0C21.9-5.6,21-4.5,21.1-3.7z"/>
			</g>
		</mask>
		<path id="Teeth" class="st24" d="M29.3-15.5h19.3c2.5,0,4.6,2,4.6,4.5v5.4c0,2.5-2.1,4.5-4.6,4.5H29.3c-2.5,0-4.6-2-4.6-4.5V-11
			C24.7-13.5,26.7-15.5,29.3-15.5z"/>
		<defs>
			<filter id="Adobe_OpacityMaskFilter_8_" filterUnits="userSpaceOnUse" x="23.8" y="4.3" width="29.4" height="19.8">
				<feColorMatrix  type="matrix" values="1 0 0 0 0  0 1 0 0 0  0 0 1 0 0  0 0 0 1 0"/>
			</filter>
		</defs>
		<mask maskUnits="userSpaceOnUse" x="23.8" y="4.3" width="29.4" height="19.8" id="mask-10_2_">
			<g class="st25">
				<path id="path-9_3_" class="st2" d="M21.1-3.7c1,8.5,8.4,15.2,17.4,15.2c9,0,16.4-6.7,17.4-15.3c0.1-0.7-0.7-1.8-1.7-1.8
					c-13.7,0-24.2,0-31.2,0C21.9-5.6,21-4.5,21.1-3.7z"/>
			</g>
		</mask>
		<g id="Tongue" class="st26">
			<g transform="translate(34.200000, 21.600000)">
				<ellipse class="st27" cx="-0.3" cy="-7.4" rx="10.1" ry="9.9"/>
				<ellipse class="st27" cx="8.9" cy="-7.4" rx="10.1" ry="9.9"/>
			</g>
		</g>
	</g>
	<g id="Nose_x2F_Default" transform="translate(25.200000, 36.000000)">
		<path id="Nose" class="st28" d="M4.4-16.7c0,4,4.8,7.2,10.8,7.2l0,0c6,0,10.8-3.2,10.8-7.2"/>
	</g>
	<g id="Eyes_x2F_Happy-_xD83D__xDE01_" transform="translate(0.000000, 7.200000)">
		<path id="Squint" class="st29" d="M4.5,1.5c1.7-3.4,5.4-5.8,9.8-5.8c4.3,0,8.1,2.4,9.7,5.8c0.5,1-0.2,1.8-0.9,1.2
			c-2.2-1.9-5.3-3.1-8.8-3.1c-3.4,0-6.4,1.1-8.6,2.9C4.9,3.2,4.1,2.5,4.5,1.5z"/>
		<path id="Squint_1_" class="st29" d="M56.7,1.5c1.7-3.4,5.4-5.8,9.8-5.8c4.3,0,8.1,2.4,9.7,5.8c0.5,1-0.2,1.8-0.9,1.2
			c-2.2-1.9-5.3-3.1-8.8-3.1c-3.4,0-6.4,1.1-8.6,2.9C57.1,3.2,56.3,2.5,56.7,1.5z"/>
	</g>
	<g id="Eyebrow_x2F_Natural_x2F_Default-Natural">
		<path id="Eyebrow" class="st29" d="M13.9-13.2c-5.2,0.2-13.7,4-13.5,9.3c0,0.2,0.3,0.2,0.4,0.1c2.5-2.7,20.1-5.4,26.3-3.9
			c0.6,0.1,1-0.4,0.6-0.8C24.7-12,18.6-13.4,13.9-13.2"/>
		<path id="Eyebrow_1_" class="st29" d="M67.8-13.2c5.2,0.2,13.7,4,13.5,9.3c0,0.2-0.3,0.2-0.4,0.1c-2.5-2.7-20.1-5.4-26.3-3.9
			c-0.6,0.1-1-0.4-0.6-0.8C57-12,63.1-13.4,67.8-13.2"/>
	</g>
</g>
<path class="st30" d="M67.8,139c7.4,2.1,9,10.7,20.3,15.4c12.7,6.3,10.5,8.3,20.4,9.6c9.9-1.2,9.4-4.4,22.5-10.7
	c11.1-4.4,11.5-11.9,19.1-13.4c12.4-21.9,9.2-48.6,9.4-71.9c-2,4.6-0.4,12.9-2.4,20.7c-2.5,8-5.6,10.1-5.8,16.9
	c-7.5,18.5-29.9-9.8-42.8-2.1c-14.2-7.6-41,24.9-43.7-3.2c-7.6-10.4-4.4-28.5-6.1-39.1c-0.6,21.2-5.2,52.3,4.2,73.1 M109,131.9
	c-9.9,0.7-14.5-8.4-17-14.8c10.6-3.8,23.3-2.5,34.1-0.3C123.9,124.5,120.5,131.2,109,131.9z"/>
</svg>
