<?xml version="1.0" encoding="utf-8"?>
<!-- Generator: Adobe Illustrator 24.0.2, SVG Export Plug-In . SVG Version: 6.00 Build 0)  -->
<svg version="1.1" id="Capa_1" xmlns="http://www.w3.org/2000/svg" xmlns:xlink="http://www.w3.org/1999/xlink" x="0px" y="0px"
	 viewBox="0 0 217 237" style="enable-background:new 0 0 217 237;" xml:space="preserve">
<style type="text/css">
	.st0{fill-rule:evenodd;clip-rule:evenodd;fill:#FFFFFF;}
	.st1{fill-rule:evenodd;clip-rule:evenodd;fill:#3E92CC;}
	.st2{filter:url(#Adobe_OpacityMaskFilter);}
	.st3{mask:url(#mask-2_1_);}
	.st4{fill-rule:evenodd;clip-rule:evenodd;fill:#D0C6AC;}
	.st5{filter:url(#Adobe_OpacityMaskFilter_1_);}
	.st6{mask:url(#mask-6_1_);}
	.st7{fill-rule:evenodd;clip-rule:evenodd;fill:#FFDBB4;}
	.st8{filter:url(#Adobe_OpacityMaskFilter_2_);}
	.st9{mask:url(#mask-6_2_);fill-rule:evenodd;clip-rule:evenodd;fill-opacity:0.1;}
	.st10{fill-rule:evenodd;clip-rule:evenodd;fill:#1F3140;}
	.st11{filter:url(#Adobe_OpacityMaskFilter_3_);}
	.st12{mask:url(#mask-14_1_);}
	.st13{fill-rule:evenodd;clip-rule:evenodd;fill:#4A312C;}
	.st14{fill-rule:evenodd;clip-rule:evenodd;fill:#B7C1DB;}
	.st15{filter:url(#Adobe_OpacityMaskFilter_4_);}
	.st16{mask:url(#mask-8_1_);}
	.st17{fill-rule:evenodd;clip-rule:evenodd;fill:#293347;}
	.st18{filter:url(#Adobe_OpacityMaskFilter_5_);}
	.st19{mask:url(#mask-8_2_);fill-rule:evenodd;clip-rule:evenodd;fill:#F4F4F4;}
	.st20{filter:url(#Adobe_OpacityMaskFilter_6_);}
	.st21{mask:url(#mask-8_3_);fill-rule:evenodd;clip-rule:evenodd;fill-opacity:0.16;}
	.st22{fill-rule:evenodd;clip-rule:evenodd;fill-opacity:0.7;}
	.st23{filter:url(#Adobe_OpacityMaskFilter_7_);}
	.st24{mask:url(#mask-10_1_);fill-rule:evenodd;clip-rule:evenodd;fill:#FFFFFF;}
	.st25{filter:url(#Adobe_OpacityMaskFilter_8_);}
	.st26{mask:url(#mask-10_2_);}
	.st27{fill-rule:evenodd;clip-rule:evenodd;fill:#FF4F6D;}
	.st28{fill-rule:evenodd;clip-rule:evenodd;fill-opacity:0.16;}
	.st29{fill-rule:evenodd;clip-rule:evenodd;fill-opacity:0.6;}
	.st30{fill:#4A312C;}
</style>
<rect x="-7.9" y="-11.8" class="st0" width="236.3" height="262.2"/>
<g id="Circle-Background">
	<circle id="path-1_1_" class="st1" cx="109" cy="141.4" r="95.3"/>
</g>
<defs>
	<filter id="Adobe_OpacityMaskFilter" filterUnits="userSpaceOnUse" x="13.7" y="46.2" width="190.9" height="190.5">
		<feColorMatrix  type="matrix" values="1 0 0 0 0  0 1 0 0 0  0 0 1 0 0  0 0 0 1 0"/>
	</filter>
</defs>
<mask maskUnits="userSpaceOnUse" x="13.7" y="46.2" width="190.9" height="190.5" id="mask-2_1_">
	<g class="st2">
		<circle id="path-1_2_" class="st0" cx="109" cy="141.4" r="95.3"/>
	</g>
</mask>
<g id="_xD83D__xDD8D_-Circle-Color" class="st3">
	<rect id="_xD83D__xDD8D_Color" x="13.7" y="46.2" class="st1" width="190.9" height="190.5"/>
</g>
<g id="Body" transform="translate(28.800000, 32.400000)">
	<g>
		<path id="path-5_1_" class="st4" d="M80.2,10.6c24.6,0,44.5,19.9,44.5,44.5l0,4.9c4.5,0.8,7.9,4.7,7.9,9.4v11.1
			c0,4.8-3.6,8.8-8.2,9.4c-1.6,15.7-11.5,29-25.2,35.5l0,14.6h3.2c31.6,0,57.2,25.6,57.2,57.2v7.1H0.8v-7.1
			c0-31.6,25.6-57.2,57.2-57.2h3.2l0-14.6c-13.7-6.5-23.5-19.8-25.2-35.5c-4.6-0.7-8.2-4.6-8.2-9.4V69.4c0-4.7,3.4-8.6,7.9-9.4
			l0-4.9C35.7,30.5,55.6,10.6,80.2,10.6z"/>
	</g>
	<defs>
		<filter id="Adobe_OpacityMaskFilter_1_" filterUnits="userSpaceOnUse" x="-24.6" y="10.6" width="210.3" height="194.4">
			<feColorMatrix  type="matrix" values="1 0 0 0 0  0 1 0 0 0  0 0 1 0 0  0 0 0 1 0"/>
		</filter>
	</defs>
	<mask maskUnits="userSpaceOnUse" x="-24.6" y="10.6" width="210.3" height="194.4" id="mask-6_1_">
		<g class="st5">
			<path id="path-5_2_" class="st0" d="M80.2,10.6c24.6,0,44.5,19.9,44.5,44.5l0,4.9c4.5,0.8,7.9,4.7,7.9,9.4v11.1
				c0,4.8-3.6,8.8-8.2,9.4c-1.6,15.7-11.5,29-25.2,35.5l0,14.6h3.2c31.6,0,57.2,25.6,57.2,57.2v7.1H0.8v-7.1
				c0-31.6,25.6-57.2,57.2-57.2h3.2l0-14.6c-13.7-6.5-23.5-19.8-25.2-35.5c-4.6-0.7-8.2-4.6-8.2-9.4V69.4c0-4.7,3.4-8.6,7.9-9.4
				l0-4.9C35.7,30.5,55.6,10.6,80.2,10.6z"/>
		</g>
	</mask>
	<g id="Skin_x2F__xD83D__xDC76__xD83C__xDFFB_-05-Pale" class="st6">
		<g id="Color" transform="translate(-28.800000, 0.000000)">
			<rect x="4.2" y="10.6" class="st7" width="210.3" height="194.4"/>
		</g>
	</g>
	<defs>
		<filter id="Adobe_OpacityMaskFilter_2_" filterUnits="userSpaceOnUse" x="35.7" y="85.2" width="88.9" height="50.8">
			<feColorMatrix  type="matrix" values="1 0 0 0 0  0 1 0 0 0  0 0 1 0 0  0 0 0 1 0"/>
		</filter>
	</defs>
	<mask maskUnits="userSpaceOnUse" x="35.7" y="85.2" width="88.9" height="50.8" id="mask-6_2_">
		<g class="st8">
			<path id="path-5_3_" class="st0" d="M80.2,10.6c24.6,0,44.5,19.9,44.5,44.5l0,4.9c4.5,0.8,7.9,4.7,7.9,9.4v11.1
				c0,4.8-3.6,8.8-8.2,9.4c-1.6,15.7-11.5,29-25.2,35.5l0,14.6h3.2c31.6,0,57.2,25.6,57.2,57.2v7.1H0.8v-7.1
				c0-31.6,25.6-57.2,57.2-57.2h3.2l0-14.6c-13.7-6.5-23.5-19.8-25.2-35.5c-4.6-0.7-8.2-4.6-8.2-9.4V69.4c0-4.7,3.4-8.6,7.9-9.4
				l0-4.9C35.7,30.5,55.6,10.6,80.2,10.6z"/>
		</g>
	</mask>
	<path id="Neck-Shadow" class="st9" d="M35.7,85.2c0,24.6,19.9,44.5,44.5,44.5s44.5-19.9,44.5-44.5l0,0v6.4
		c0,24.6-19.9,44.5-44.5,44.5s-44.5-19.9-44.5-44.5V85.2z"/>
</g>
<g transform="translate(43.000000, 15.000000)">
	<g id="Short-Hair">
		<path id="path-13_1_" class="st10" d="M103.3,31.1c-2.2-2.2-4.7-4.1-7.2-6c-0.5-0.4-1.1-0.8-1.6-1.3c-0.1-0.1-1.4-1-1.5-1.3
			c-0.4-0.8-0.2-0.2-0.1-1.1c0.1-1.2,2.5-4.5,0.7-5.3c-0.8-0.3-2.2,0.6-3,0.9c-1.5,0.6-3,1.1-4.5,1.5c0.7-1.5,2.2-4.4-0.5-3.6
			c-2.1,0.6-4,2.2-6.1,2.9c0.7-1.1,3.4-4.6,1-4.8c-0.8-0.1-3,1.4-3.9,1.7c-2.5,0.9-5,1.5-7.6,2c-8.9,1.6-19.3,1.1-27.5,5.2
			c-6.3,3.1-12.6,8-16.3,14.1c-3.5,5.9-4.9,12.4-5.6,19.3c-0.5,5-0.6,10.2-0.3,15.2c0.1,1.6,0.3,9.2,2.7,6.9
			c1.2-1.1,1.2-5.8,1.5-7.3c0.6-3.1,1.2-6.2,2.2-9.2c1.8-5.3,3.8-7.8,8.2-11.4c2.8-2.3,4.8-5.5,7.4-7.9c1.2-1.1,0.3-1,2.2-0.8
			c1.3,0.1,2.6,0.1,3.9,0.2c3,0.1,6,0.1,9,0.1c6.1,0,12.1,0.1,18.2-0.2c2.7-0.1,5.4-0.2,8.1-0.5c1.5-0.1,4.2-1.1,5.4-0.4
			c1.1,0.7,2.3,2.9,3.1,3.8c1.9,2.1,4.2,3.8,6.5,5.5c4.7,3.6,7,5,8.5,10.7c1.4,5.7,1,10.9,2.8,16.5c0.3,1,1.1,2.7,2.1,1.2
			c0.2-0.3,0.1-1.8,0.1-2.7c0-3.6,0.9-6.3,0.9-9.9C111.9,53.8,111.5,39.5,103.3,31.1z"/>
	</g>
	<defs>
		<filter id="Adobe_OpacityMaskFilter_3_" filterUnits="userSpaceOnUse" x="-38.9" y="-0.6" width="210.9" height="222.7">
			<feColorMatrix  type="matrix" values="1 0 0 0 0  0 1 0 0 0  0 0 1 0 0  0 0 0 1 0"/>
		</filter>
	</defs>
	<mask maskUnits="userSpaceOnUse" x="-38.9" y="-0.6" width="210.9" height="222.7" id="mask-14_1_">
		<g class="st11">
			<path id="path-13_2_" class="st0" d="M103.3,31.1c-2.2-2.2-4.7-4.1-7.2-6c-0.5-0.4-1.1-0.8-1.6-1.3c-0.1-0.1-1.4-1-1.5-1.3
				c-0.4-0.8-0.2-0.2-0.1-1.1c0.1-1.2,2.5-4.5,0.7-5.3c-0.8-0.3-2.2,0.6-3,0.9c-1.5,0.6-3,1.1-4.5,1.5c0.7-1.5,2.2-4.4-0.5-3.6
				c-2.1,0.6-4,2.2-6.1,2.9c0.7-1.1,3.4-4.6,1-4.8c-0.8-0.1-3,1.4-3.9,1.7c-2.5,0.9-5,1.5-7.6,2c-8.9,1.6-19.3,1.1-27.5,5.2
				c-6.3,3.1-12.6,8-16.3,14.1c-3.5,5.9-4.9,12.4-5.6,19.3c-0.5,5-0.6,10.2-0.3,15.2c0.1,1.6,0.3,9.2,2.7,6.9
				c1.2-1.1,1.2-5.8,1.5-7.3c0.6-3.1,1.2-6.2,2.2-9.2c1.8-5.3,3.8-7.8,8.2-11.4c2.8-2.3,4.8-5.5,7.4-7.9c1.2-1.1,0.3-1,2.2-0.8
				c1.3,0.1,2.6,0.1,3.9,0.2c3,0.1,6,0.1,9,0.1c6.1,0,12.1,0.1,18.2-0.2c2.7-0.1,5.4-0.2,8.1-0.5c1.5-0.1,4.2-1.1,5.4-0.4
				c1.1,0.7,2.3,2.9,3.1,3.8c1.9,2.1,4.2,3.8,6.5,5.5c4.7,3.6,7,5,8.5,10.7c1.4,5.7,1,10.9,2.8,16.5c0.3,1,1.1,2.7,2.1,1.2
				c0.2-0.3,0.1-1.8,0.1-2.7c0-3.6,0.9-6.3,0.9-9.9C111.9,53.8,111.5,39.5,103.3,31.1z"/>
		</g>
	</mask>
	<g id="Color_x2F_Hair_x2F_Brown-Dark" class="st12">
		<g id="Color_1_" transform="translate(-43.100000, -15.000000)">
			<rect x="4.2" y="14.4" class="st13" width="210.9" height="222.7"/>
		</g>
	</g>
</g>
<g id="Clothing_x2F_Hoodie" transform="translate(0.000000, 153.000000)">
	<g id="Hoodie">
		<path id="path-7_1_" class="st14" d="M128,6.8c14.4,1.6,25.4,6,25.4,17.5l0-0.3c20.5,8.7,34.9,29,34.9,52.7v7.1H29.6v-7.1
			c0-23.7,14.4-44,34.9-52.7C64.7,12.7,75.7,8.4,89.9,6.8l0,15c0,10.5,8.5,19.1,19.1,19.1S128,32.3,128,21.8l0,0L128,6.8z"/>
	</g>
	<defs>
		<filter id="Adobe_OpacityMaskFilter_4_" filterUnits="userSpaceOnUse" x="4.2" y="-3.6" width="210.4" height="87.3">
			<feColorMatrix  type="matrix" values="1 0 0 0 0  0 1 0 0 0  0 0 1 0 0  0 0 0 1 0"/>
		</filter>
	</defs>
	<mask maskUnits="userSpaceOnUse" x="4.2" y="-3.6" width="210.4" height="87.3" id="mask-8_1_">
		<g class="st15">
			<path id="path-7_2_" class="st0" d="M128,6.8c14.4,1.6,25.4,6,25.4,17.5l0-0.3c20.5,8.7,34.9,29,34.9,52.7v7.1H29.6v-7.1
				c0-23.7,14.4-44,34.9-52.7C64.7,12.7,75.7,8.4,89.9,6.8l0,15c0,10.5,8.5,19.1,19.1,19.1S128,32.3,128,21.8l0,0L128,6.8z"/>
		</g>
	</mask>
	<g id="Color_x2F_Palette_x2F_Slate" class="st16">
		<rect id="_xD83D__xDD8D_Color_1_" x="4.2" y="-3.6" class="st17" width="210.4" height="87.3"/>
	</g>
	<defs>
		<filter id="Adobe_OpacityMaskFilter_5_" filterUnits="userSpaceOnUse" x="79.6" y="42.6" width="58.8" height="45.9">
			<feColorMatrix  type="matrix" values="1 0 0 0 0  0 1 0 0 0  0 0 1 0 0  0 0 0 1 0"/>
		</filter>
	</defs>
	<mask maskUnits="userSpaceOnUse" x="79.6" y="42.6" width="58.8" height="45.9" id="mask-8_2_">
		<g class="st18">
			<path id="path-7_3_" class="st0" d="M128,6.8c14.4,1.6,25.4,6,25.4,17.5l0-0.3c20.5,8.7,34.9,29,34.9,52.7v7.1H29.6v-7.1
				c0-23.7,14.4-44,34.9-52.7C64.7,12.7,75.7,8.4,89.9,6.8l0,15c0,10.5,8.5,19.1,19.1,19.1S128,32.3,128,21.8l0,0L128,6.8z"/>
		</g>
	</mask>
	<path id="Straps" class="st19" d="M85.1,45.4l0,38.3h-5.6l0-41.2C81.3,43.6,83.2,44.5,85.1,45.4z M138.3,42.6l0,42.3
		c0,2-1.2,3.7-2.8,3.7s-2.8-1.6-2.8-3.7l0-38.5C134.7,45.2,136.6,43.9,138.3,42.6z"/>
	<defs>
		<filter id="Adobe_OpacityMaskFilter_6_" filterUnits="userSpaceOnUse" x="56.2" y="6.5" width="105.6" height="43.9">
			<feColorMatrix  type="matrix" values="1 0 0 0 0  0 1 0 0 0  0 0 1 0 0  0 0 0 1 0"/>
		</filter>
	</defs>
	<mask maskUnits="userSpaceOnUse" x="56.2" y="6.5" width="105.6" height="43.9" id="mask-8_3_">
		<g class="st20">
			<path id="path-7_4_" class="st0" d="M128,6.8c14.4,1.6,25.4,6,25.4,17.5l0-0.3c20.5,8.7,34.9,29,34.9,52.7v7.1H29.6v-7.1
				c0-23.7,14.4-44,34.9-52.7C64.7,12.7,75.7,8.4,89.9,6.8l0,15c0,10.5,8.5,19.1,19.1,19.1S128,32.3,128,21.8l0,0L128,6.8z"/>
		</g>
	</mask>
	<path id="Shadow" class="st21" d="M141.5,6.5c12,2.3,20.2,6.8,20.2,15.5c0,15.6-26.2,28.3-52.8,28.3S56.2,37.7,56.2,22
		c0-8.8,8.3-13.3,20.2-15.5c-7.2,2.7-11.9,7.1-11.9,14.6c0,16.2,22.1,29.3,44.5,29.3s44.5-13.1,44.5-29.3c0-7.3-4.5-11.7-11.4-14.4
		L141.5,6.5z"/>
</g>
<g id="Face" transform="translate(68.400000, 73.800000)">
	<g id="Mouth_x2F_Smile" transform="translate(1.800000, 46.800000)">
		<g id="Mouth">
			<path id="path-9_1_" class="st22" d="M23.3,10.2c0.9,7.5,7.4,13.4,15.3,13.4c8,0,14.5-5.9,15.3-13.5c0.1-0.6-0.6-1.6-1.5-1.6
				c-12.1,0-21.3,0-27.6,0C24.1,8.5,23.3,9.4,23.3,10.2z"/>
		</g>
		<defs>
			<filter id="Adobe_OpacityMaskFilter_7_" filterUnits="userSpaceOnUse" x="26.5" y="-0.2" width="25.2" height="12.7">
				<feColorMatrix  type="matrix" values="1 0 0 0 0  0 1 0 0 0  0 0 1 0 0  0 0 0 1 0"/>
			</filter>
		</defs>
		<mask maskUnits="userSpaceOnUse" x="26.5" y="-0.2" width="25.2" height="12.7" id="mask-10_1_">
			<g class="st23">
				<path id="path-9_2_" class="st0" d="M23.3,10.2c0.9,7.5,7.4,13.4,15.3,13.4c8,0,14.5-5.9,15.3-13.5c0.1-0.6-0.6-1.6-1.5-1.6
					c-12.1,0-21.3,0-27.6,0C24.1,8.5,23.3,9.4,23.3,10.2z"/>
			</g>
		</mask>
		<path id="Teeth" class="st24" d="M30.5-0.2h17c2.2,0,4.1,1.8,4.1,4v4.8c0,2.2-1.8,4-4.1,4h-17c-2.2,0-4.1-1.8-4.1-4V3.7
			C26.5,1.5,28.3-0.2,30.5-0.2z"/>
		<defs>
			<filter id="Adobe_OpacityMaskFilter_8_" filterUnits="userSpaceOnUse" x="25.7" y="17.2" width="26" height="17.5">
				<feColorMatrix  type="matrix" values="1 0 0 0 0  0 1 0 0 0  0 0 1 0 0  0 0 0 1 0"/>
			</filter>
		</defs>
		<mask maskUnits="userSpaceOnUse" x="25.7" y="17.2" width="26" height="17.5" id="mask-10_2_">
			<g class="st25">
				<path id="path-9_3_" class="st0" d="M23.3,10.2c0.9,7.5,7.4,13.4,15.3,13.4c8,0,14.5-5.9,15.3-13.5c0.1-0.6-0.6-1.6-1.5-1.6
					c-12.1,0-21.3,0-27.6,0C24.1,8.5,23.3,9.4,23.3,10.2z"/>
			</g>
		</mask>
		<g id="Tongue" class="st26">
			<g transform="translate(34.200000, 21.600000)">
				<ellipse class="st27" cx="0.4" cy="4.4" rx="8.9" ry="8.7"/>
				<ellipse class="st27" cx="8.5" cy="4.4" rx="8.9" ry="8.7"/>
			</g>
		</g>
	</g>
	<g id="Nose_x2F_Default" transform="translate(25.200000, 36.000000)">
		<path id="Nose" class="st28" d="M5.8,0c0,3.5,4.3,6.4,9.5,6.4l0,0c5.3,0,9.5-2.8,9.5-6.4"/>
	</g>
	<g id="Eyes_x2F_Happy-_xD83D__xDE01_" transform="translate(0.000000, 7.200000)">
		<path id="Squint" class="st29" d="M8.9,19.4c1.5-3,4.8-5.1,8.6-5.1c3.8,0,7.1,2.1,8.6,5.1c0.4,0.9-0.2,1.6-0.8,1.1
			c-1.9-1.7-4.7-2.7-7.8-2.7c-3,0-5.7,1-7.6,2.6C9.2,20.9,8.5,20.3,8.9,19.4z"/>
		<path id="Squint_1_" class="st29" d="M55,19.4c1.5-3,4.8-5.1,8.6-5.1c3.8,0,7.1,2.1,8.6,5.1c0.4,0.9-0.2,1.6-0.8,1.1
			c-1.9-1.7-4.7-2.7-7.8-2.7c-3,0-5.7,1-7.6,2.6C55.3,20.9,54.6,20.3,55,19.4z"/>
	</g>
	<g id="Eyebrow_x2F_Natural_x2F_Default-Natural">
		<path id="Eyebrow" class="st29" d="M17.2,7.4c-4.6,0.2-12.1,3.6-11.9,8.2c0,0.2,0.2,0.2,0.3,0.1c2.2-2.3,17.7-4.7,23.2-3.5
			c0.5,0.1,0.9-0.4,0.6-0.7C26.7,8.4,21.3,7.2,17.2,7.4"/>
		<path id="Eyebrow_1_" class="st29" d="M64.7,7.4c4.6,0.2,12.1,3.6,11.9,8.2c0,0.2-0.2,0.2-0.3,0.1c-2.2-2.3-17.7-4.7-23.2-3.5
			c-0.5,0.1-0.9-0.4-0.6-0.7C55.2,8.4,60.6,7.2,64.7,7.4"/>
	</g>
</g>
<path class="st30" d="M72.8,150.3c6.5,1.9,7.9,9.4,17.9,13.6c11.2,5.5,9.2,7.3,18,8.5c8.8-1,8.3-3.9,19.9-9.4
	c9.8-3.9,10.2-10.5,16.8-11.8c10.9-19.4,8.2-42.8,8.3-63.4c-1.8,4.1-0.4,11.4-2.1,18.2c-2.2,7.1-4.9,8.9-5.1,14.9
	c-6.7,16.3-26.4-8.6-37.8-1.9c-12.5-6.7-36.2,22-38.5-2.9c-6.7-9.2-3.9-25.1-5.4-34.5c-0.6,18.7-4.6,46.2,3.7,64.5 M109.2,144
	c-8.7,0.6-12.8-7.4-15-13c9.4-3.3,20.6-2.2,30-0.2C122.3,137.5,119.3,143.4,109.2,144z"/>
</svg>
