<?xml version="1.0" encoding="utf-8"?>
<!-- Generator: Adobe Illustrator 24.0.2, SVG Export Plug-In . SVG Version: 6.00 Build 0)  -->
<svg version="1.1" id="Capa_1" xmlns="http://www.w3.org/2000/svg" xmlns:xlink="http://www.w3.org/1999/xlink" x="0px" y="0px"
	 viewBox="0 0 512 512" style="enable-background:new 0 0 512 512;" xml:space="preserve">
<style type="text/css">
	.st0{fill:#FFFFFF;}
</style>
<path class="st0" d="M396,456c5.5,0,10-4.5,10-10s-4.5-10-10-10s-10,4.5-10,10S390.5,456,396,456z"/>
<path class="st0" d="M230,456c5.5,0,10-4.5,10-10s-4.5-10-10-10s-10,4.5-10,10S224.5,456,230,456z"/>
<path class="st0" d="M509.9,139.8c-1.9-2.4-4.8-3.8-7.9-3.8H142l-22.8-96.9C116,25.5,104,16,90,16H30C13.5,16,0,29.5,0,46
	s13.5,30,30,30h36.2l74.6,316.9C144,406.5,156,416,170,416h20c-6.3,8.4-10,18.8-10,30c0,27.6,22.4,50,50,50s50-22.4,50-50
	c0-11.2-3.7-21.6-10-30H356c-6.3,8.4-10,18.8-10,30c0,27.6,22.4,50,50,50s50-22.4,50-50c0-11.2-3.7-21.6-10-30h0
	c16.5,0,30-13.5,30-30s-13.5-30-30-30H193.8l-9.4-40H243h0h0h146h0h0h57.3c13.8,0,25.8-9.3,29.1-22.7l36.2-144.8
	C512.4,145.4,511.8,142.3,509.9,139.8z M474.2,216h-63.9l7.5-60h71.4L474.2,216z M356,236h31.7l-7.5,60H326v-30c0-5.5-4.5-10-10-10
	s-10,4.5-10,10v30h-54.2l-7.5-60H276c5.5,0,10-4.5,10-10s-4.5-10-10-10h-34.2l-7.5-60H306v30c0,5.5,4.5,10,10,10s10-4.5,10-10v-30
	h71.7l-7.5,60H356c-5.5,0-10,4.5-10,10S350.5,236,356,236z M179.6,296l-14.1-60h58.6l7.5,60H179.6z M214.2,156l7.5,60h-60.9
	l-14.1-60H214.2z M260,446c0,16.5-13.5,30-30,30s-30-13.5-30-30s13.5-30,30-30S260,429.5,260,446z M426,446c0,16.5-13.5,30-30,30
	s-30-13.5-30-30s13.5-30,30-30S426,429.5,426,446z M436,376c5.5,0,10,4.5,10,10s-4.5,10-10,10H170c-4.7,0-8.7-3.2-9.7-7.7L82.1,56
	H30c-5.5,0-10-4.5-10-10s4.5-10,10-10h60c4.7,0,8.7,3.2,9.7,7.7L161.9,308c0,0,0,0,0,0.1l16,67.9H436z M456.1,288.4
	c-1.1,4.5-5.1,7.6-9.7,7.6h-46.1l7.5-60h61.4L456.1,288.4z"/>
<path class="st0" d="M316,216c-5.5,0-10,4.5-10,10s4.5,10,10,10s10-4.5,10-10S321.5,216,316,216z"/>
</svg>
