<?xml version="1.0" encoding="utf-8"?>
<!-- Generator: Adobe Illustrator 24.0.2, SVG Export Plug-In . SVG Version: 6.00 Build 0)  -->
<svg version="1.1" id="regular" xmlns="http://www.w3.org/2000/svg" xmlns:xlink="http://www.w3.org/1999/xlink" x="0px" y="0px"
	 viewBox="0 0 512 512" style="enable-background:new 0 0 512 512;" xml:space="preserve">
<style type="text/css">
	.st0{fill:#FFFFFF;}
</style>
<path class="st0" d="M512,162.1c-0.9-5.6-1.7-10-7.7-13.7C260.1,3.5,263.5-7.3,247.7,2.3C62.6,117.4,11.1,143.1,3.6,152
	C-3.1,158.9,0,169.5,0,329c-0.4,18.2,165.2,116.5,245.7,179.3c7.1,5.1,16,4.2,21.4-0.6C506.6,338,512.4,344.8,512,329
	C512,329,511.7,159.9,512,162.1L512,162.1z M480,300.6l-82.7-50.3l82.7-57.5V300.6z M367.4,232L272,174V44.5L466.7,163L367.4,232z
	 M256,309.5L173.3,252l82.7-50.3l82.7,50.3L256,309.5z M240,44.5V174c-37.1,23-68.5,42.2-95,58.3L45.3,163L240,44.5z M115.1,250.5
	c-40,24-66.1,39.3-83.1,49.5V192.7L115.1,250.5z M143.4,270.2l96.6,67.2v128L45.3,329.9L143.4,270.2z M272,465.4v-128l96.6-67.2
	l98.1,59.7L272,465.4z"/>
</svg>
