<?xml version="1.0" encoding="utf-8"?>
<!-- Generator: Adobe Illustrator 24.0.2, SVG Export Plug-In . SVG Version: 6.00 Build 0)  -->
<svg version="1.1" id="Capa_1" xmlns="http://www.w3.org/2000/svg" xmlns:xlink="http://www.w3.org/1999/xlink" x="0px" y="0px"
	 viewBox="0 0 512 512" style="enable-background:new 0 0 512 512;" xml:space="preserve">
<style type="text/css">
	.st0{fill:#FFFFFF;}
</style>
<g>
	<g>
		<path class="st0" d="M458.7,0H53.3C23.9,0,0,23.9,0,53.3v405.3C0,488.1,23.9,512,53.3,512h405.3c29.4,0,53.3-23.9,53.3-53.3V53.3
			C512,23.9,488.1,0,458.7,0z M490.7,458.7c0,17.7-14.3,32-32,32H53.3c-17.7,0-32-14.3-32-32V53.3c0-17.7,14.3-32,32-32h405.3
			c17.7,0,32,14.3,32,32L490.7,458.7L490.7,458.7z"/>
	</g>
</g>
<g>
	<g>
		<rect x="42.7" y="85.3" class="st0" width="426.7" height="21.3"/>
	</g>
</g>
<g>
	<g>
		<rect x="53.3" y="42.7" class="st0" width="21.3" height="21.3"/>
	</g>
</g>
<g>
	<g>
		<rect x="96" y="42.7" class="st0" width="21.3" height="21.3"/>
	</g>
</g>
<g>
	<g>
		<rect x="437.3" y="42.7" class="st0" width="21.3" height="21.3"/>
	</g>
</g>
<g>
	<g>
		<path class="st0" d="M288,138.7H53.3c-5.9,0-10.7,4.8-10.7,10.7v192c0,5.9,4.8,10.7,10.7,10.7H288c5.9,0,10.7-4.8,10.7-10.7v-192
			C298.7,143.4,293.9,138.7,288,138.7z M277.3,330.7H64V160h213.3V330.7z"/>
	</g>
</g>
<g>
	<g>
		<path class="st0" d="M242.2,280.5c-2-2-4.7-3.1-7.5-3.1h-48.9l-39.5-39.5c-4.2-4.2-10.9-4.2-15.1,0l-53.3,53.3l15.1,15.1
			l45.8-45.8l35.1,35.1c2,2,4.7,3.1,7.5,3.1h48.9l18.2,18.2l15.1-15.1L242.2,280.5z"/>
	</g>
</g>
<g>
	<g>
		<path class="st0" d="M224,181.3c-17.7,0-32,14.3-32,32s14.3,32,32,32s32-14.3,32-32S241.7,181.3,224,181.3z M224,224
			c-5.9,0-10.7-4.8-10.7-10.7c0-5.9,4.8-10.7,10.7-10.7s10.7,4.8,10.7,10.7C234.7,219.2,229.9,224,224,224z"/>
	</g>
</g>
<g>
	<g>
		<path class="st0" d="M458.7,138.7h-128c-5.9,0-10.7,4.8-10.7,10.7V192c0,5.9,4.8,10.7,10.7,10.7h128c5.9,0,10.7-4.8,10.7-10.7
			v-42.7C469.3,143.4,464.6,138.7,458.7,138.7z M448,181.3H341.3V160H448V181.3z"/>
	</g>
</g>
<g>
	<g>
		<rect x="320" y="224" class="st0" width="106.7" height="21.3"/>
	</g>
</g>
<g>
	<g>
		<rect x="320" y="266.7" class="st0" width="149.3" height="21.3"/>
	</g>
</g>
<g>
	<g>
		<rect x="320" y="309.3" class="st0" width="149.3" height="21.3"/>
	</g>
</g>
<g>
	<g>
		<path class="st0" d="M458.7,352h-128c-5.9,0-10.7,4.8-10.7,10.7V448c0,5.9,4.8,10.7,10.7,10.7h128c5.9,0,10.7-4.8,10.7-10.7v-85.3
			C469.3,356.8,464.6,352,458.7,352z M448,437.3H341.3v-64H448V437.3z"/>
	</g>
</g>
<g>
	<g>
		<rect x="42.7" y="426.7" class="st0" width="256" height="21.3"/>
	</g>
</g>
<g>
	<g>
		<rect x="149.3" y="384" class="st0" width="149.3" height="21.3"/>
	</g>
</g>
<g>
	<g>
		<rect x="106.7" y="384" class="st0" width="21.3" height="21.3"/>
	</g>
</g>
<g>
	<g>
		<rect x="64" y="384" class="st0" width="21.3" height="21.3"/>
	</g>
</g>
</svg>
