<?xml version="1.0" encoding="utf-8"?>
<!-- Generator: Adobe Illustrator 24.0.2, SVG Export Plug-In . SVG Version: 6.00 Build 0)  -->
<svg version="1.1" id="Layer_5" xmlns="http://www.w3.org/2000/svg" xmlns:xlink="http://www.w3.org/1999/xlink" x="0px" y="0px"
	 viewBox="0 0 512 512" style="enable-background:new 0 0 512 512;" xml:space="preserve">
<style type="text/css">
	.st0{fill:#FFFFFF;}
</style>
<path class="st0" d="M504,257.9c0-23.1-18.8-41.9-41.9-41.9c-7.9,0-15.5,2.3-22.1,6.4V32c0-13.2-10.8-24-24-24H64
	C50.8,8,40,18.8,40,32v72h-8c-13.2,0-24,10.8-24,24v128c0,13.2,10.8,24,24,24h8v200c0,13.2,10.8,24,24,24h352c13.2,0,24-10.8,24-24
	V339.3l51.7-51.7C499.6,279.7,504,269.1,504,257.9z M64,24h352c4.4,0,8,3.6,8,8v40H56V32C56,27.6,59.6,24,64,24z M24,256V128
	c0-4.4,3.6-8,8-8h176c4.4,0,8,3.6,8,8v128c0,4.4-3.6,8-8,8H32C27.6,264,24,260.4,24,256z M424,480c0,4.4-3.6,8-8,8H64
	c-4.4,0-8-3.6-8-8V280h152c13.2,0,24-10.8,24-24V128c0-13.2-10.8-24-24-24H56V88h368v148.7l-16,16V200H264v80h116.7L256.5,404.2
	l-9.9,69.2l69.2-9.9L424,355.3V480z M269.7,425l25.4,25.4l-29.6,4.2L269.7,425z M312,444.7L299.3,432L432,299.3l12.7,12.7L312,444.7
	z M288,420.7L275.3,408L408,275.3l12.7,12.7L288,420.7z M392,264H280v-48h112V264z M480.4,276.3L456,300.7L419.3,264l24.4-24.4h0
	c4.9-4.9,11.4-7.6,18.3-7.6c14.3,0,25.9,11.6,25.9,25.9C488,264.8,485.2,271.5,480.4,276.3z"/>
<path class="st0" d="M96,40h16v16H96V40z"/>
<path class="st0" d="M64,40h16v16H64V40z"/>
<path class="st0" d="M128,40h16v16h-16V40z"/>
<path class="st0" d="M96.5,237.5l32.1-96l15.2,5.1l-32.1,96L96.5,237.5z"/>
<path class="st0" d="M154.3,165.7l26.3,26.3l-26.3,26.3l11.3,11.3l37.7-37.7l-37.7-37.7L154.3,165.7z"/>
<path class="st0" d="M74.3,154.3L36.7,192l37.7,37.7l11.3-11.3L59.3,192l26.3-26.3L74.3,154.3z"/>
<path class="st0" d="M408,104H264v80h144V104z M392,168H280v-48h112V168z"/>
<path class="st0" d="M72,456h128v16H72V456z"/>
<path class="st0" d="M72,424h160v16H72V424z"/>
<path class="st0" d="M88,408h16v-16h16v-16h-16v-80H88v80H72v16h16V408z"/>
<path class="st0" d="M152,408h16v-80h16v-16h-16v-16h-16v16h-16v16h16V408z"/>
<path class="st0" d="M248,360v-16h-16v-48h-16v48h-16v16h16v48h16v-48H248z"/>
<path class="st0" d="M216,456h16v16h-16V456z"/>
<path class="st0" d="M392,392h16v16h-16V392z"/>
<path class="st0" d="M392,456h16v16h-16V456z"/>
<path class="st0" d="M392,424h16v16h-16V424z"/>
</svg>
