<?xml version="1.0" encoding="utf-8"?>
<!-- Generator: Adobe Illustrator 24.0.2, SVG Export Plug-In . SVG Version: 6.00 Build 0)  -->
<svg version="1.1" id="Capa_1" xmlns="http://www.w3.org/2000/svg" xmlns:xlink="http://www.w3.org/1999/xlink" x="0px" y="0px"
	 viewBox="0 0 58 58" style="enable-background:new 0 0 58 58;" xml:space="preserve">
<style type="text/css">
	.st0{fill:#C6C6C6;}
	.st1{fill:#E8E8E8;}
	.st2{fill:#3E92CC;}
</style>
<polygon class="st0" points="51.5,14 37.5,0 6.5,0 6.5,58 51.5,58 "/>
<polygon class="st1" points="37.5,0 37.5,14 51.5,14 "/>
<path class="st1" d="M41.5,22h-16c-0.6,0-1-0.4-1-1s0.4-1,1-1h16c0.6,0,1,0.4,1,1S42.1,22,41.5,22z"/>
<path class="st2" d="M17.5,23c-0.3,0-0.5-0.1-0.7-0.3l-2-2c-0.4-0.4-0.4-1,0-1.4s1-0.4,1.4,0l1.4,1.4l4.3-3.4
	c0.4-0.3,1.1-0.3,1.4,0.2c0.3,0.4,0.3,1.1-0.2,1.4l-5,4C17.9,22.9,17.7,23,17.5,23z"/>
<path class="st1" d="M41.5,33h-16c-0.6,0-1-0.4-1-1s0.4-1,1-1h16c0.6,0,1,0.4,1,1C42.5,32.6,42.1,33,41.5,33z"/>
<path class="st2" d="M17.5,34c-0.3,0-0.5-0.1-0.7-0.3l-2-2c-0.4-0.4-0.4-1,0-1.4s1-0.4,1.4,0l1.4,1.4l4.3-3.4
	c0.4-0.3,1.1-0.3,1.4,0.2c0.3,0.4,0.3,1.1-0.2,1.4l-5,4C17.9,33.9,17.7,34,17.5,34z"/>
<path class="st1" d="M41.5,44h-16c-0.6,0-1-0.4-1-1s0.4-1,1-1h16c0.6,0,1,0.4,1,1S42.1,44,41.5,44z"/>
<path class="st2" d="M17.5,45c-0.3,0-0.5-0.1-0.7-0.3l-2-2c-0.4-0.4-0.4-1,0-1.4s1-0.4,1.4,0l1.4,1.4l4.3-3.4
	c0.4-0.3,1.1-0.3,1.4,0.2c0.3,0.4,0.3,1.1-0.2,1.4l-5,4C17.9,44.9,17.7,45,17.5,45z"/>
</svg>
