<?xml version="1.0" encoding="utf-8"?>
<!-- Generator: Adobe Illustrator 24.0.2, SVG Export Plug-In . SVG Version: 6.00 Build 0)  -->
<svg version="1.1" id="Capa_1" xmlns="http://www.w3.org/2000/svg" xmlns:xlink="http://www.w3.org/1999/xlink" x="0px" y="0px"
	 viewBox="0 0 512 512" style="enable-background:new 0 0 512 512;" xml:space="preserve">
<style type="text/css">
	.st0{fill:#FFFFFF;}
</style>
<g>
	<g>
		<path class="st0" d="M511.6,110.3c-0.1-1.1-0.3-2.1-0.6-3.2C508.5,91.8,495.9,80,480,80H32C16.1,80,3.5,91.8,1,107.1
			c-0.4,1.1-0.5,2.1-0.6,3.2c0,0.6-0.4,1.1-0.4,1.7v288c0,0.6,0.3,1.2,0.4,1.8c0.1,1.1,0.3,2.1,0.6,3.2C3.5,420.1,16.1,432,32,432
			h448c15.9,0,28.5-11.9,31-27.1c0.4-1.1,0.5-2.1,0.6-3.2c0-0.6,0.4-1.1,0.4-1.7V112C512,111.4,511.7,110.9,511.6,110.3z M468.9,112
			L291.3,242.2L256,268.2l-35.3-25.9c0,0,0,0,0,0L43.1,112H468.9z M32,143.6L185.3,256L32,368.4V143.6z M43.1,400l169.3-124.1
			l34.1,25c2.8,2.1,6.1,3.1,9.5,3.1c3.3,0,6.7-1,9.5-3.1l34.1-25L468.9,400H43.1z M480,368.4L326.7,256L480,143.6V368.4z"/>
	</g>
</g>
</svg>
