<svg version="1.1" id="Capa_1" xmlns="http://www.w3.org/2000/svg" x="0" y="0" viewBox="0 0 512 512" xml:space="preserve"><style>.st0{fill:#373f51}</style><path class="st0" d="M479.2 91.9H32.8C14.7 91.9 0 77.2 0 59.1s14.7-32.8 32.8-32.8h446.4c18.1 0 32.8 14.7 32.8 32.8s-14.7 32.8-32.8 32.8zM295.4 288.8H32.8C14.7 288.8 0 274.1 0 256s14.7-32.8 32.8-32.8h262.6c18.1 0 32.8 14.7 32.8 32.8s-14.7 32.8-32.8 32.8z"/><path d="M479.2 288.8h-52.5c-18.1 0-32.8-14.7-32.8-32.8s14.7-32.8 32.8-32.8h52.5c18.1 0 32.8 14.7 32.8 32.8s-14.7 32.8-32.8 32.8z" fill="#3e92cc"/><path class="st0" d="M479.2 485.7H32.8C14.7 485.7 0 471.1 0 452.9s14.7-32.8 32.8-32.8h446.4c18.1 0 32.8 14.7 32.8 32.8 0 18.2-14.7 32.8-32.8 32.8z"/></svg>